PathFileType	4	(X/Y/Z)	./resultDataOpenSim/trcMotMarkerGrf/sub10/qtm-12-07.trc
DataRate	CameraRate	NumFrames	NumMarkers	Units	OrigDataRate	OrigDataStartFrame	OrigNumFrames
250.000000	250.000000	12	24	m	250.000000	378	503
Frame#	Time	L.Toe.Tip			R.Toe.Tip			L.Ankle.Lat			R.Ankle.Lat			L.Ankle.Med			R.Ankle.Med			L.Heel			R.Heel			L.Knee.Lat			R.Knee.Lat			L.Knee.Med			R.Knee.Med			L.Thigh.Upper			R.Thigh.Upper			L.ASIS			R.ASIS			V.Sacral			L.Acromium			R.Acromium			C7			L.Elbow			R.Elbow			L.Wrist.Lat			R.Wrist.Lat
		X1	Y1	Z1	X2	Y2	Z2	X3	Y3	Z3	X4	Y4	Z4	X5	Y5	Z5	X6	Y6	Z6	X7	Y7	Z7	X8	Y8	Z8	X9	Y9	Z9	X10	Y10	Z10	X11	Y11	Z11	X12	Y12	Z12	X13	Y13	Z13	X14	Y14	Z14	X15	Y15	Z15	X16	Y16	Z16	X17	Y17	Z17	X18	Y18	Z18	X19	Y19	Z19	X20	Y20	Z20	X21	Y21	Z21	X22	Y22	Z22	X23	Y23	Z23	X24	Y24	Z24

378	1.508	1.0238155	0.054864896	-0.081888529	0.873349	0.038387984	0.081726068	0.90170496	0.11389822	-0.09166665	0.73346756	0.055359037	0.13621546	0.93147422	0.13128491	-0.012804363	0.74530046	0.084637219	0.051755933	0.8390708	0.097173149	-0.038237649	0.67936477	0.033354979	0.095280586	1.0207807	0.4853553	-0.11549747	0.8202183	0.45083511	0.17782276	1.0516266	0.45939396	0.0015295993	0.81813807	0.45591515	0.048261427	0.88488038	0.8404192	-0.15147665	0.85288023	0.86750026	0.23058037	0.92437612	0.95550767	-0.082766068	0.92792836	0.95933808	0.16126163	0.72646347	0.9620905	0.033226553	0.83576518	1.425167	-0.11587871	0.81871649	1.4225158	0.20952078	0.74476205	1.4473609	0.039127465	0.73285249	1.10116	-0.18547896	0.78955533	1.06486	0.27795533	0.83141882	0.88404889	-0.22917324	1.0113648	0.954427	0.32802243
379	1.512	1.0430518	0.054827417	-0.081680825	0.87344328	0.03848845	0.082026133	0.91923625	0.1100425	-0.091139902	0.7334877	0.055311301	0.1361319	0.95014123	0.12848409	-0.012970809	0.74558901	0.084597165	0.051763172	0.85729023	0.091406706	-0.03766209	0.67904784	0.033516546	0.094762119	1.02816	0.48512459	-0.11498007	0.82178253	0.45047853	0.17788375	1.0590777	0.45954253	0.0020964441	0.82045275	0.45539765	0.048503224	0.89186324	0.84006864	-0.15147213	0.85606739	0.86707445	0.2305124	0.93039321	0.95485868	-0.082311755	0.93179363	0.95882782	0.16182804	0.73137516	0.96135227	0.031637308	0.84099985	1.4243761	-0.11585067	0.82381424	1.4217358	0.20964251	0.74985591	1.4466959	0.039146776	0.73638763	1.1011189	-0.18480738	0.79801272	1.063846	0.27928238	0.83171382	0.88290696	-0.22929175	1.0218401	0.95692913	0.32774707
380	1.516	1.0622497	0.054909541	-0.081477246	0.87341281	0.038502569	0.082150358	0.93689321	0.10632607	-0.090607226	0.73352277	0.055256047	0.13602982	0.96873765	0.12587978	-0.013004356	0.74592233	0.084541026	0.051776617	0.87571573	0.085832564	-0.037114934	0.67877871	0.0336663	0.094306481	1.0353962	0.48472782	-0.11447597	0.82344981	0.45010633	0.17790854	1.0663522	0.45955952	0.0026558076	0.82280769	0.4548866	0.04862636	0.89881233	0.83970796	-0.15143886	0.85913838	0.86659397	0.23045682	0.93647664	0.95418312	-0.081871625	0.93570619	0.95827228	0.16237084	0.7363202	0.96055924	0.030033507	0.84624488	1.423539	-0.11583249	0.82890648	1.4209028	0.20975347	0.75495215	1.4459725	0.039143636	0.73992458	1.101043	-0.18389942	0.80642952	1.0627088	0.28089862	0.83211218	0.88180568	-0.22944383	1.0322751	0.95936941	0.32740624
381	1.52	1.0813964	0.055108523	-0.08128154	0.87329773	0.038440167	0.08211644	0.95463125	0.10274723	-0.090095148	0.73355822	0.055209614	0.13591564	0.98695679	0.12334689	-0.01284081	0.74617783	0.084495509	0.051744758	0.89425061	0.080500974	-0.036580091	0.678626	0.033766505	0.094002565	1.0424965	0.48414966	-0.11398755	0.82522183	0.44971955	0.17790191	1.0734453	0.45942677	0.0031950413	0.82517866	0.4543817	0.048634412	0.90571261	0.83933406	-0.15137299	0.86217604	0.86606833	0.23040067	0.94260809	0.95349047	-0.081449882	0.93968336	0.95768313	0.16288308	0.74130255	0.95972643	0.028422609	0.85150168	1.4226509	-0.1158176	0.8340014	1.4200274	0.20985122	0.76005774	1.4452172	0.039132607	0.74343602	1.1009554	-0.18256081	0.81475956	1.0614423	0.28281119	0.83264412	0.88073692	-0.22964382	1.042646	0.96175374	0.32699816
382	1.524	1.1004912	0.05543863	-0.081096169	0.8731638	0.0383682	0.082033012	0.9724129	0.09931758	-0.089617032	0.73358471	0.055183737	0.13579861	1.0047692	0.12083307	-0.012532127	0.74633953	0.084459906	0.051657396	0.91285026	0.075457377	-0.036043031	0.67856222	0.033833145	0.093806894	1.0494715	0.48339073	-0.11351291	0.8270813	0.44931394	0.17785267	1.0803819	0.45913399	0.0037159249	0.82758623	0.45387183	0.048568287	0.91255923	0.83894305	-0.1512746	0.8652343	0.8654997	0.23034347	0.94874297	0.95278278	-0.081037627	0.94371107	0.95707105	0.16337494	0.74633497	0.95884726	0.026821993	0.85677541	1.4217187	-0.11580495	0.83910993	1.4191109	0.20993432	0.76517941	1.444444	0.039123227	0.74695825	1.1008717	-0.18082895	0.82309435	1.0601456	0.28481564	0.83328451	0.87969268	-0.22987301	1.0529268	0.96408994	0.32652739
383	1.528	1.1195385	0.055917932	-0.080921846	0.87299827	0.038325911	0.081925497	0.99022554	0.096063185	-0.089169383	0.73360567	0.055175562	0.13568262	1.0223405	0.11839157	-0.012135534	0.74645578	0.084419829	0.051528986	0.93150712	0.070725971	-0.035490981	0.67853516	0.033897418	0.093645886	1.056325	0.48246073	-0.11305055	0.82901201	0.44888556	0.17775995	1.0871821	0.45868433	0.0042209963	0.83006588	0.45335507	0.048469415	0.91935157	0.8385287	-0.15114689	0.86834213	0.86489544	0.23028122	0.95483966	0.95205395	-0.080623097	0.94772339	0.95642473	0.16387669	0.75144247	0.95789712	0.025265091	0.862073	1.4207572	-0.11579424	0.84423786	1.4181493	0.21000758	0.77031463	1.4436479	0.039109131	0.75056976	1.1007748	-0.17912844	0.83152094	1.0589319	0.28663177	0.83400867	0.8786718	-0.23010994	1.0631279	0.96638407	0.32597989
384	1.532	1.138536	0.056564902	-0.080752833	0.87276388	0.038320378	0.081767238	1.0080787	0.09301899	-0.088740924	0.73362889	0.055174179	0.13556752	1.0397623	0.11609042	-0.011596623	0.74656586	0.08436987	0.051377298	0.95021026	0.066330098	-0.034943877	0.67851459	0.033972136	0.093481957	1.0630507	0.48137508	-0.11260152	0.83101144	0.44843501	0.17764214	1.0938588	0.45808879	0.0047154911	0.83263027	0.45284175	0.048346407	0.9260896	0.83808027	-0.15099599	0.87150907	0.86426048	0.23020765	0.96088401	0.95129742	-0.080198866	0.95164099	0.95571177	0.16441934	0.75664187	0.95685986	0.023773963	0.86738908	1.4197748	-0.11578454	0.84938468	1.4171394	0.21007982	0.77545537	1.4428217	0.039077371	0.75430325	1.1006276	-0.17798509	0.84004143	1.0578333	0.28814646	0.83480969	0.87767299	-0.23034203	1.0732778	0.96863426	0.32532705
385	1.536	1.1574728	0.057403116	-0.080575209	0.8724963	0.038342471	0.081581902	1.0259866	0.090218032	-0.088316516	0.73365722	0.055172027	0.13545384	1.0569862	0.11396628	-0.010796114	0.74668512	0.084317097	0.05121732	0.96894354	0.062307189	-0.034486423	0.67849061	0.03405406	0.093305533	1.0696446	0.48016009	-0.11216359	0.83308513	0.44796873	0.17751507	1.1004244	0.45735295	0.0052009016	0.83526703	0.45234113	0.048186172	0.93277865	0.83758202	-0.15082978	0.87471362	0.86359	0.23013769	0.96689108	0.95051494	-0.079764957	0.95545608	0.95491423	0.16500152	0.76190705	0.95575337	0.022363003	0.87270668	1.4187675	-0.11577733	0.85454289	1.4160784	0.21015281	0.78059832	1.441964	0.039024307	0.75811563	1.1004119	-0.17753407	0.84862079	1.0568139	0.28943908	0.83569234	0.87669379	-0.2305656	1.0833613	0.97082393	0.324572
386	1.54	1.1763306	0.058459524	-0.080370048	0.8723078	0.038362016	0.081449597	1.0439457	0.08768584	-0.087882547	0.7336869	0.055170719	0.13534338	1.0740223	0.11206962	-0.0097657529	0.74681914	0.0842704	0.051058831	0.98769796	0.05868484	-0.034178532	0.6784635	0.034139699	0.093116931	1.0761258	0.47884662	-0.11173167	0.83523701	0.44749339	0.17737403	1.1068846	0.45647221	0.0056698368	0.83795996	0.45185333	0.047992312	0.93942704	0.83702005	-0.15065486	0.87790313	0.86287867	0.2301118	0.9728913	0.94971389	-0.079328478	0.95924119	0.95405066	0.16558956	0.76717784	0.95461656	0.021054019	0.87801968	1.4177277	-0.11577685	0.8597014	1.4149658	0.21021879	0.78574585	1.4410745	0.038957308	0.76193514	1.1001296	-0.17738703	0.85724169	1.0558281	0.29063396	0.83665937	0.87573141	-0.23078347	1.0933263	0.97292921	0.32375664
387	1.544	1.1950883	0.059765322	-0.080118566	0.87228324	0.038347848	0.081427334	1.0619227	0.085445833	-0.087439826	0.7337118	0.055179698	0.13523768	1.0910443	0.1104932	-0.0087548994	0.74697387	0.084232857	0.0509121	1.0064735	0.055443302	-0.033933504	0.67843737	0.034232602	0.092921899	1.0825351	0.47744981	-0.11130794	0.8374582	0.447007	0.17720574	1.113238	0.45544312	0.0061148906	0.84069804	0.45137259	0.047791332	0.9460384	0.83639139	-0.15047561	0.88103991	0.86214177	0.23014185	0.97890948	0.9488984	-0.078895984	0.96306619	0.95315205	0.16615363	0.77241942	0.95346577	0.019852732	0.88333995	1.416656	-0.11578726	0.86485628	1.4138084	0.21027076	0.79090041	1.4401507	0.038884994	0.76572384	1.0997824	-0.17703213	0.86589666	1.0548489	0.29179807	0.83770915	0.8747853	-0.23100185	1.1031503	0.9749427	0.32292029
388	1.548	1.213725	0.061364132	-0.079806738	0.87238253	0.038302843	0.081488926	1.0798701	0.083524516	-0.087004231	0.7337294	0.055209174	0.13513783	1.1082097	0.10931544	-0.0079795296	0.74715391	0.084204545	0.050797016	1.0252562	0.052536944	-0.033615038	0.67841676	0.034339405	0.092730556	1.0889051	0.47596862	-0.11090204	0.83973297	0.44650068	0.17701012	1.11949	0.45427592	0.0065378639	0.84347302	0.45089246	0.047606773	0.9526121	0.83570086	-0.15029387	0.88417138	0.86142017	0.23014365	0.98495355	0.94806811	-0.078466344	0.96694718	0.95223151	0.16668912	0.77764085	0.9522779	0.018731355	0.8886792	1.4155622	-0.11580785	0.87001769	1.4126149	0.21030966	0.79606347	1.4391933	0.03881246	0.76950149	1.0993826	-0.17633014	0.87455475	1.05387	0.29292881	0.83884473	0.8738589	-0.23122516	1.1128645	0.97688221	0.32207691
389	1.552	1.2322172	0.063310816	-0.079429176	0.87249501	0.038254831	0.081565432	1.0977485	0.08195117	-0.086592984	0.73374127	0.055264539	0.13504524	1.1254835	0.10853364	-0.00742293	0.74735961	0.084186638	0.050739183	1.043986	0.049966103	-0.033267521	0.67840446	0.034464909	0.092550498	1.0952398	0.4744069	-0.11052107	0.84206417	0.44596829	0.17679771	1.1256544	0.45298926	0.006945737	0.84627787	0.45040877	0.047435173	0.95914973	0.83495035	-0.15010774	0.88741986	0.86074562	0.22998197	0.99102034	0.94722151	-0.07803345	0.97086147	0.95128155	0.16720991	0.78284971	0.95101804	0.017645477	0.89403844	1.414456	-0.11583132	0.87519936	1.4113873	0.21033898	0.80123753	1.4382052	0.038744753	0.77330623	1.0989594	-0.1755237	0.88316874	1.0529011	0.29399198	0.84007784	0.87295535	-0.23145514	1.1225138	0.97876809	0.32121969
